<svg width="24" height="24" viewBox="0 0 24 24" fill="none" xmlns="http://www.w3.org/2000/svg">
<mask id="mask0_550_13065" style="mask-type:alpha" maskUnits="userSpaceOnUse" x="0" y="0" width="24" height="24">
<rect width="24" height="24" fill="#D9D9D9"/>
</mask>
<g mask="url(#mask0_550_13065)">
<path d="M12.0004 21.0999C9.45039 21.0999 7.29639 20.2249 5.53839 18.4749C3.77972 16.7249 2.90039 14.5666 2.90039 11.9999C2.90039 9.7666 3.60872 7.80394 5.02539 6.11193C6.44206 4.4206 8.30039 3.39993 10.6004 3.04993C11.1004 2.94993 11.4964 3.07493 11.7884 3.42493C12.0797 3.77493 12.1254 4.17493 11.9254 4.62493C11.6921 5.0416 11.5131 5.4706 11.3884 5.91194C11.2631 6.35394 11.2004 6.8166 11.2004 7.29994C11.2004 8.83327 11.7377 10.1333 12.8124 11.1999C13.8877 12.2666 15.1921 12.7999 16.7254 12.7999C17.1921 12.7999 17.6587 12.7416 18.1254 12.6249C18.5921 12.5083 19.0171 12.3333 19.4004 12.0999C19.8171 11.9166 20.2044 11.9499 20.5624 12.1999C20.9211 12.4499 21.0504 12.8416 20.9504 13.3749C20.6504 15.6083 19.6464 17.4543 17.9384 18.9129C16.2297 20.3709 14.2504 21.0999 12.0004 21.0999Z" fill="white"/>
</g>
</svg>
