<svg width="24" height="24" viewBox="0 0 24 24" fill="none" xmlns="http://www.w3.org/2000/svg">
<mask id="mask0_800_43968" style="mask-type:alpha" maskUnits="userSpaceOnUse" x="0" y="0" width="24" height="24">
<rect width="24" height="24" fill="#D9D9D9"/>
</mask>
<g mask="url(#mask0_800_43968)">
<path d="M3.99961 18.2254C3.68294 18.2254 3.41228 18.1171 3.18761 17.9004C2.96228 17.6837 2.84961 17.4171 2.84961 17.1004C2.84961 16.7671 2.96228 16.4921 3.18761 16.2754C3.41228 16.0587 3.68294 15.9504 3.99961 15.9504H19.9996C20.3163 15.9504 20.5869 16.0587 20.8116 16.2754C21.0369 16.4921 21.1496 16.7671 21.1496 17.1004C21.1496 17.4171 21.0369 17.6837 20.8116 17.9004C20.5869 18.1171 20.3163 18.2254 19.9996 18.2254H3.99961ZM3.99961 13.1504C3.68294 13.1504 3.41228 13.0377 3.18761 12.8124C2.96228 12.5877 2.84961 12.3171 2.84961 12.0004C2.84961 11.6837 2.96228 11.4131 3.18761 11.1884C3.41228 10.9631 3.68294 10.8504 3.99961 10.8504H19.9996C20.3163 10.8504 20.5869 10.9631 20.8116 11.1884C21.0369 11.4131 21.1496 11.6837 21.1496 12.0004C21.1496 12.3171 21.0369 12.5877 20.8116 12.8124C20.5869 13.0377 20.3163 13.1504 19.9996 13.1504H3.99961ZM3.99961 8.05039C3.68294 8.05039 3.41228 7.94206 3.18761 7.72539C2.96228 7.50872 2.84961 7.23372 2.84961 6.90039C2.84961 6.58372 2.96228 6.31706 3.18761 6.10039C3.41228 5.88372 3.68294 5.77539 3.99961 5.77539H19.9996C20.3163 5.77539 20.5869 5.88372 20.8116 6.10039C21.0369 6.31706 21.1496 6.58372 21.1496 6.90039C21.1496 7.23372 21.0369 7.50872 20.8116 7.72539C20.5869 7.94206 20.3163 8.05039 19.9996 8.05039H3.99961Z" fill="white"/>
</g>
</svg>
