<svg width="24" height="24" viewBox="0 0 24 24" fill="none" xmlns="http://www.w3.org/2000/svg">
<mask id="mask0_800_43978" style="mask-type:alpha" maskUnits="userSpaceOnUse" x="0" y="0" width="24" height="24">
<rect width="24" height="24" fill="#D9D9D9"/>
</mask>
<g mask="url(#mask0_800_43978)">
<path d="M11.9996 16.9996C10.6163 16.9996 9.43728 16.5119 8.46261 15.5366C7.48728 14.5619 6.99961 13.3829 6.99961 11.9996C6.99961 10.6163 7.48728 9.43694 8.46261 8.46161C9.43728 7.48694 10.6163 6.99961 11.9996 6.99961C13.3829 6.99961 14.5623 7.48694 15.5376 8.46161C16.5123 9.43694 16.9996 10.6163 16.9996 11.9996C16.9996 13.3829 16.5123 14.5619 15.5376 15.5366C14.5623 16.5119 13.3829 16.9996 11.9996 16.9996ZM1.99961 13.1496C1.68294 13.1496 1.41228 13.0369 1.18761 12.8116C0.962276 12.5869 0.849609 12.3163 0.849609 11.9996C0.849609 11.6829 0.962276 11.4123 1.18761 11.1876C1.41228 10.9623 1.68294 10.8496 1.99961 10.8496H3.99961C4.31628 10.8496 4.58694 10.9623 4.81161 11.1876C5.03694 11.4123 5.14961 11.6829 5.14961 11.9996C5.14961 12.3163 5.03694 12.5869 4.81161 12.8116C4.58694 13.0369 4.31628 13.1496 3.99961 13.1496H1.99961ZM19.9996 13.1496C19.6829 13.1496 19.4123 13.0369 19.1876 12.8116C18.9623 12.5869 18.8496 12.3163 18.8496 11.9996C18.8496 11.6829 18.9623 11.4123 19.1876 11.1876C19.4123 10.9623 19.6829 10.8496 19.9996 10.8496H21.9996C22.3163 10.8496 22.5869 10.9623 22.8116 11.1876C23.0369 11.4123 23.1496 11.6829 23.1496 11.9996C23.1496 12.3163 23.0369 12.5869 22.8116 12.8116C22.5869 13.0369 22.3163 13.1496 21.9996 13.1496H19.9996ZM11.9996 5.14961C11.6829 5.14961 11.4123 5.03694 11.1876 4.81161C10.9623 4.58694 10.8496 4.31628 10.8496 3.99961V1.99961C10.8496 1.68294 10.9623 1.41194 11.1876 1.18661C11.4123 0.961943 11.6829 0.849609 11.9996 0.849609C12.3163 0.849609 12.5869 0.961943 12.8116 1.18661C13.0369 1.41194 13.1496 1.68294 13.1496 1.99961V3.99961C13.1496 4.31628 13.0369 4.58694 12.8116 4.81161C12.5869 5.03694 12.3163 5.14961 11.9996 5.14961ZM11.9996 23.1496C11.6829 23.1496 11.4123 23.0369 11.1876 22.8116C10.9623 22.5869 10.8496 22.3163 10.8496 21.9996V19.9996C10.8496 19.6829 10.9623 19.4123 11.1876 19.1876C11.4123 18.9623 11.6829 18.8496 11.9996 18.8496C12.3163 18.8496 12.5869 18.9623 12.8116 19.1876C13.0369 19.4123 13.1496 19.6829 13.1496 19.9996V21.9996C13.1496 22.3163 13.0369 22.5869 12.8116 22.8116C12.5869 23.0369 12.3163 23.1496 11.9996 23.1496ZM5.54961 7.14961L4.47461 6.09961C4.24128 5.88294 4.12894 5.61628 4.13761 5.29961C4.14561 4.98294 4.25794 4.70794 4.47461 4.47461C4.70794 4.24128 4.98294 4.12461 5.29961 4.12461C5.61628 4.12461 5.88294 4.24128 6.09961 4.47461L7.14961 5.54961C7.36628 5.78294 7.47461 6.04961 7.47461 6.34961C7.47461 6.64961 7.36628 6.91628 7.14961 7.14961C6.93294 7.38294 6.67061 7.49528 6.36261 7.48661C6.05394 7.47861 5.78294 7.36628 5.54961 7.14961ZM17.8996 19.5246L16.8496 18.4496C16.6329 18.2163 16.5246 17.9456 16.5246 17.6376C16.5246 17.3289 16.6329 17.0663 16.8496 16.8496C17.0663 16.6163 17.3289 16.5036 17.6376 16.5116C17.9456 16.5203 18.2163 16.6329 18.4496 16.8496L19.5246 17.8996C19.7579 18.1163 19.8706 18.3829 19.8626 18.6996C19.8539 19.0163 19.7413 19.2913 19.5246 19.5246C19.2913 19.7579 19.0163 19.8746 18.6996 19.8746C18.3829 19.8746 18.1163 19.7579 17.8996 19.5246ZM16.8496 7.14961C16.6163 6.93294 16.5039 6.67028 16.5126 6.36161C16.5206 6.05361 16.6329 5.78294 16.8496 5.54961L17.8996 4.47461C18.1163 4.24128 18.3829 4.12861 18.6996 4.13661C19.0163 4.14528 19.2913 4.25794 19.5246 4.47461C19.7579 4.70794 19.8746 4.98294 19.8746 5.29961C19.8746 5.61628 19.7579 5.88294 19.5246 6.09961L18.4496 7.14961C18.2163 7.36628 17.9496 7.47461 17.6496 7.47461C17.3496 7.47461 17.0829 7.36628 16.8496 7.14961ZM4.47461 19.5246C4.24128 19.2913 4.12461 19.0163 4.12461 18.6996C4.12461 18.3829 4.24128 18.1163 4.47461 17.8996L5.54961 16.8496C5.78294 16.6329 6.05394 16.5246 6.36261 16.5246C6.67061 16.5246 6.93294 16.6329 7.14961 16.8496C7.38294 17.0663 7.49561 17.3289 7.48761 17.6376C7.47894 17.9456 7.36628 18.2163 7.14961 18.4496L6.09961 19.5246C5.88294 19.7579 5.61628 19.8706 5.29961 19.8626C4.98294 19.8539 4.70794 19.7413 4.47461 19.5246Z" fill="white"/>
</g>
</svg>
