<svg width="25" height="24" viewBox="0 0 25 24" fill="none" xmlns="http://www.w3.org/2000/svg">
<mask id="mask0_800_43974" style="mask-type:alpha" maskUnits="userSpaceOnUse" x="0" y="0" width="25" height="24">
<rect width="24" height="24" transform="matrix(-1 0 0 1 24.5 0)" fill="#D9D9D9"/>
</mask>
<g mask="url(#mask0_800_43974)">
<path d="M9.12539 19.4C9.50872 19.5833 9.85872 19.5667 10.1754 19.35C10.4921 19.1333 10.6504 18.7833 10.6504 18.3C10.6504 18.1 10.5837 17.9083 10.4504 17.725C10.3171 17.5417 10.1504 17.4 9.95039 17.3C8.93372 16.8167 8.12539 16.0917 7.52539 15.125C6.92539 14.1583 6.62539 13.1 6.62539 11.95C6.62539 11.2167 6.76306 10.5083 7.03839 9.825C7.31306 9.14167 7.74206 8.5 8.32539 7.9L8.52539 7.7V8.95C8.52539 9.25 8.62939 9.5 8.83739 9.7C9.04606 9.9 9.29206 10 9.57539 10C9.87539 10 10.1254 9.9 10.3254 9.7C10.5254 9.5 10.6254 9.25 10.6254 8.95V5.025C10.6254 4.70833 10.5171 4.43733 10.3004 4.212C10.0837 3.98733 9.81706 3.875 9.50039 3.875H5.55039C5.25039 3.875 5.00039 3.975 4.80039 4.175C4.60039 4.375 4.50039 4.625 4.50039 4.925C4.50039 5.225 4.60039 5.475 4.80039 5.675C5.00039 5.875 5.25039 5.975 5.55039 5.975H7.07539L6.75039 6.25C5.91706 7.08333 5.30872 7.98733 4.92539 8.962C4.54206 9.93733 4.35039 10.9333 4.35039 11.95C4.35039 13.5833 4.77939 15.0667 5.63739 16.4C6.49606 17.7333 7.65872 18.7333 9.12539 19.4ZM19.4504 20.125C19.7504 20.125 20.0004 20.025 20.2004 19.825C20.4004 19.625 20.5004 19.375 20.5004 19.075C20.5004 18.775 20.4004 18.525 20.2004 18.325C20.0004 18.125 19.7504 18.025 19.4504 18.025H17.9254L18.2504 17.75C19.0837 16.9167 19.6921 16.0123 20.0754 15.037C20.4587 14.0623 20.6504 13.0667 20.6504 12.05C20.6504 10.4167 20.2211 8.93333 19.3624 7.6C18.5044 6.26667 17.3421 5.26667 15.8754 4.6C15.4921 4.41667 15.1421 4.43333 14.8254 4.65C14.5087 4.86667 14.3504 5.21667 14.3504 5.7C14.3504 5.9 14.4171 6.09167 14.5504 6.275C14.6837 6.45833 14.8504 6.6 15.0504 6.7C16.0671 7.18333 16.8754 7.90833 17.4754 8.875C18.0754 9.84167 18.3754 10.9 18.3754 12.05C18.3754 12.7833 18.2381 13.4917 17.9634 14.175C17.6881 14.8583 17.2587 15.5 16.6754 16.1L16.4754 16.3V15.05C16.4754 14.75 16.3711 14.5 16.1624 14.3C15.9544 14.1 15.7087 14 15.4254 14C15.1254 14 14.8754 14.1 14.6754 14.3C14.4754 14.5 14.3754 14.75 14.3754 15.05V18.975C14.3754 19.2917 14.4837 19.5627 14.7004 19.788C14.9171 20.0127 15.1837 20.125 15.5004 20.125H19.4504Z" fill="white"/>
</g>
</svg>
